<svg id="Layer_1" data-name="Layer 1" xmlns="http://www.w3.org/2000/svg" viewBox="0 0 741 707"><title>logo2</title><rect width="741" height="707" fill="#fff"/><path d="M56,238.35c17.69,3.05,34.75-6.5,51.36-13.31,44.29-18.16,95.27-18.34,136.83-42.08" transform="translate(-28.5 -42.5)" fill="none"/><polygon points="27.92 320.24 215.66 213.38 222.02 213.38 602.02 417.95 596.31 432.24 498.02 384.81 219.17 232.24 27.92 336.81 27.92 320.24" fill="#f58123"/><g id="Layer_3" data-name="Layer 3"><polygon points="215.66 248.81 219.74 248.81 602.02 453.95 598.59 468.24 216.88 266.52 30.59 369.38 27.92 370.52 215.66 248.81" fill="#f58123"/><path d="M56.42,391.88" transform="translate(-28.5 -42.5)" fill="#f58123"/><polyline points="27.92 370.52 27.92 349.38 215.66 248.81" fill="#f58123"/></g><g id="Layer_4" data-name="Layer 4"><polygon points="319.26 75.89 332.31 135.57 329.7 523.09 679.17 523.09 679.17 539.09 251.74 539.09 251.74 524.24 314.97 523.09 319.26 75.89" fill="#f58123"/></g><g id="Layer_5" data-name="Layer 5"><rect x="251.74" y="494.52" width="373.14" height="15.43" fill="#f58123"/></g><g id="Layer_6" data-name="Layer 6"><polygon points="370.02 523.09 370.02 494.52 367.88 313.6 370.02 293.05 370.02 227.09 380.88 227.09 380.88 265.38 380.88 298.9 384.7 322.81 384.7 494.52 384.7 509.95 384.7 523.09 370.02 523.09" fill="#f58123"/></g><g id="Layer_7" data-name="Layer 7"><polyline points="67.74 597.09 251.74 597.09 251.74 539.09 114.94 539.09 114.94 322.81 67.74 348.87" fill="#2e2c73"/></g><g id="Layer_9" data-name="Layer 9"><polygon points="324.77 560.45 285.77 560.45 285.77 565.7 324.77 565.7 324.77 575.66 285.77 575.66 285.77 589.49 275.92 589.49 275.92 554.66 277.2 552.52 277.95 551.77 279.88 550.7 324.77 550.7 324.77 560.45" fill="#2e2c73"/></g><g id="Layer_10" data-name="Layer 10"><polygon points="380.59 560.34 340.84 560.34 340.84 565.7 380.59 565.7 380.59 575.45 340.84 575.45 340.84 579.41 380.59 579.41 380.59 589.49 334.95 589.49 332.17 587.56 330.88 585.41 330.88 555.09 332.06 553.16 333.45 551.77 335.38 550.7 380.59 550.7 380.59 560.34" fill="#2e2c73"/></g><g id="Layer_11" data-name="Layer 11"><polygon points="388.95 579.63 437.7 579.63 437.7 586.38 436.84 587.45 435.88 588.2 434.59 589.49 388.95 589.49 388.95 579.63" fill="#2e2c73"/></g><g id="Layer_12" data-name="Layer 12"><polygon points="428.92 579.74 428.92 564.63 433.95 564.63 435.13 565.27 436.2 566.02 437.38 567.41 437.81 568.16 437.81 580.59 428.92 580.59 428.92 579.74" fill="#2e2c73"/></g><g id="Layer_13" data-name="Layer 13"><polygon points="428.92 576.52 393.13 576.52 390.77 575.45 389.92 574.27 388.95 572.24 388.95 565.06 388.95 563.88 398.7 564.41 432.02 564.52 428.92 576.52" fill="#2e2c73"/></g><g id="Layer_14" data-name="Layer 14"><polygon points="398.92 564.84 398.92 550.7 393.02 550.7 390.88 551.66 389.7 552.63 388.95 554.45 388.95 572.24 398.27 572.24 398.92 564.84" fill="#2e2c73"/></g><g id="Layer_15" data-name="Layer 15"><polygon points="398.81 560.45 438.88 560.45 438.88 550.7 393.24 550.7 393.67 560.45 398.81 560.45" fill="#2e2c73"/></g><g id="Layer_17" data-name="Layer 17"><polygon points="456.88 582.52 487.31 582.52 487.31 570.2 456.88 571.16 456.88 582.52" fill="#2e2c73"/><path d="M557.17,609.16" transform="translate(-28.5 -42.5)" fill="#fff" stroke="#000" stroke-miterlimit="10"/><path d="M515.81,626.09" transform="translate(-28.5 -42.5)" fill="#2e2c73"/><polyline points="486.02 570.24 456.88 570.24 456.88 577.52 486.02 570.24" fill="#2e2c73"/></g><g id="Layer_19" data-name="Layer 19"><polygon points="456.88 582.52 456.88 589.49 447.24 589.49 447.24 557.02 447.24 555.58 449.17 553.16 450.88 552.09 452.06 552.09 456.88 552.09 456.88 582.52" fill="#2e2c73"/></g><g id="Layer_20" data-name="Layer 20"><polyline points="452.06 552.09 491.59 552.09 492.88 553.16 494.17 554.02 495.02 555.58 496.31 558.95 496.31 560.45 496.31 589.49 486.45 589.49 486.02 581.88 486.02 563.88 485.81 552.09" fill="#2e2c73"/></g><g id="Layer_21" data-name="Layer 21"><rect x="456.88" y="552.09" width="30.43" height="11.14" fill="#2e2c73"/></g><g id="Layer_22" data-name="Layer 22"><polygon points="535.17 560.66 506.17 582.52 505.59 583.59 505.59 587.38 507.74 589.49 524.45 579.81 554.59 558.38 555.31 555.52 555.31 553.09 553.17 550.52 535.17 560.66" fill="#2e2c73"/><polyline points="535.17 560.66 505.59 581.81 505.59 583.59 507.74 589.49 521.02 585.52 525.17 580.95 524.45 579.81 535.17 567.24 535.17 560.66" fill="#2e2c73"/></g><g id="Layer_23" data-name="Layer 23"><path d="M575,593.59" transform="translate(-28.5 -42.5)" fill="#2e2c73"/><polygon points="535.17 560.66 505.59 560.52 505.59 550.52 553.17 550.52 535.17 560.66" fill="#2e2c73"/><polygon points="524.45 579.81 553.88 579.81 553.88 589.49 507.74 589.49 524.45 579.81" fill="#2e2c73"/><polygon points="603.17 589.49 603.17 582.24 572.45 582.24 572.45 589.49 562.74 589.49 562.74 571.24 562.74 570 572.31 570.81 603.17 570.81 612.59 570.81 612.59 589.49 603.17 589.49" fill="#2e2c73"/></g><g id="Layer_24" data-name="Layer 24"><polygon points="562.74 570 562.74 556.74 563.24 556.02 564.09 555.02 565.38 554.02 566.74 553.09 567.95 552.38 569.09 551.74 572.38 551.74 572.74 551.74 572.74 570.81 562.74 570" fill="#2e2c73"/></g><g id="Layer_25" data-name="Layer 25"><polygon points="572.74 563.59 603.02 563.59 603.02 572.45 612.88 572.45 612.59 558.66 611.74 556.81 610.31 554.88 609.02 553.74 607.74 552.66 606.67 551.74 570.52 551.74 572.74 563.59" fill="#2e2c73"/></g><g id="Layer_26" data-name="Layer 26"><path d="M691.09,618.38" transform="translate(-28.5 -42.5)" fill="#2e2c73"/><polyline points="623.59 550.95 622.81 551.74 622.31 552.38 621.31 553.02 620.95 553.74 620.95 589.49 629.88 589.38 629.88 564.74 631.52 564.74 661.95 588.59 665.09 589.38 666.99 589.38 668.88 588.31 670.02 586.74 670.74 584.38 671.02 550.66 662.95 550.66 662.95 575.88" fill="#2e2c73"/><polygon points="624.17 550.66 622.81 551.74 621.31 553.02 621.31 554.02 632.81 552.74 629.81 550.66 624.17 550.66" fill="#2e2c73"/><polyline points="629.81 550.66 661.95 575.52 642.52 570.52 623.17 556.24 625.45 551.31" fill="#2e2c73"/></g><g id="Layer_28" data-name="Layer 28"><rect x="160.95" y="613.66" width="12.93" height="3.86" fill="#05050a"/></g><g id="Layer_29" data-name="Layer 29"><rect x="147.95" y="613.66" width="11.93" height="3.86" fill="#05050a"/></g><g id="Layer_30" data-name="Layer 30"><polyline points="176.02 617.52 196.95 617.52 196.95 613.66 176.02 613.66 176.02 617.52 177.88 617.52" fill="#05050a"/></g><g id="Layer_31" data-name="Layer 31"><polygon points="149.81 617.52 155.95 638.45 163.81 638.45 157.88 617.52 149.81 617.52" fill="#05050a"/></g><g id="Layer_32" data-name="Layer 32"><path d="M202.38,660" transform="translate(-28.5 -42.5)" fill="#05050a"/><polygon points="162.74 617.52 163.81 619.74 163.81 623.66 162.02 627.99 160.95 631.09 162.67 637.81 163.81 638.45 166.31 628.45 166.67 627.99 169.09 638.45 177.81 638.45 170.95 617.52 162.74 617.52" fill="#05050a"/></g><g id="Layer_33" data-name="Layer 33"><polygon points="172.67 632.95 175.17 630.4 178.45 617.52 183.02 617.52 177.81 638.45 172.67 632.95" fill="#05050a"/></g><g id="Layer_34" data-name="Layer 34"><polygon points="186.95 617.52 193.02 638.45 200.81 638.45 194.95 617.52 186.95 617.52" fill="#05050a"/></g><g id="Layer_35" data-name="Layer 35"><polygon points="198.09 617.52 200.81 618.59 200.81 623.66 198.09 632.59 200.81 638.45 203.38 628.52 205.95 638.45 214.81 638.45 212.02 631.59 210.95 631.66 207.95 617.52 198.09 617.52" fill="#05050a"/><rect x="198.09" y="616.59" width="9.86" height="0.93" fill="#05050a"/><path d="M222.08,659.09" transform="translate(-28.5 -42.5)" fill="#05050a"/></g><g id="Layer_36" data-name="Layer 36"><rect x="198.09" y="613.66" width="12.79" height="3.57" fill="#05050a"/></g><g id="Layer_37" data-name="Layer 37"><polygon points="210.88 632.95 214.81 620.52 214.81 617.52 219.88 617.52 214.81 638.45 210.88 632.95" fill="#05050a"/></g><g id="Layer_38" data-name="Layer 38"><polygon points="237.88 638.45 230.09 638.45 224.17 617.52 212.95 617.52 212.95 613.66 233.95 613.66 233.95 617.24 232.24 617.24 237.88 638.45" fill="#05050a"/></g><g id="Layer_39" data-name="Layer 39"><polygon points="234.93 613.66 234.93 617.56 236.97 617.56 237.88 618.58 237.88 623.5 235.86 630.85 234.4 633.84 237.8 638.15 240.13 628.49 242.97 638.45 251.81 638.45 247.95 631.65 244.9 620.45 244.95 617.5 247.79 617.5 247.95 613.66 234.93 613.66" fill="#05050a"/></g><g id="Layer_40" data-name="Layer 40"><polygon points="247.09 632.24 247.95 631.65 248.76 631.65 251.81 620.56 251.81 617.56 249.99 617.56 249.99 613.66 258.88 613.66 258.88 617.45 256.74 617.45 251.81 634.59 251.81 638.45 248.76 637.7 247.09 632.24" fill="#05050a"/></g><g id="Layer_41" data-name="Layer 41"><polygon points="262.9 633.68 262.9 636.52 261.88 637.54 260.81 638.45 257.97 638.45 256.84 637.49 255.93 636.47 255.93 633.68 256.79 632.66 257.97 631.7 260.76 631.7 261.88 632.61 262.9 633.68" fill="#05050a"/></g><g id="Layer_41_copy" data-name="Layer 41 copy"><polygon points="505.9 633.68 505.9 636.52 504.88 637.54 503.81 638.45 500.97 638.45 499.84 637.49 498.93 636.47 498.93 633.68 499.79 632.66 500.97 631.7 503.76 631.7 504.88 632.61 505.9 633.68" fill="#05050a"/></g><g id="Layer_42" data-name="Layer 42"><polygon points="279.95 613.66 279.95 617.52 276.95 617.52 276.95 634.59 281.88 634.59 283.81 633.81 284.81 631.7 284.81 627.59 288.88 627.59 288.88 638.45 265.95 638.45 265.95 634.59 268.88 634.59 268.88 617.59 265.95 617.59 265.95 613.66 279.95 613.66" fill="#05050a"/></g><g id="Layer_43" data-name="Layer 43"><polygon points="294.88 617.59 292.02 617.59 292.02 613.66 305.88 613.66 305.88 617.59 302.95 617.59 302.95 634.59 305.88 634.59 305.88 638.45 292.02 638.45 292.02 634.59 294.95 634.59 294.88 617.59" fill="#05050a"/></g><g id="Layer_44" data-name="Layer 44"><polygon points="325.81 619.66 323.02 619.66 323.02 622.66 322.02 623.59 317.74 623.59 317.31 627.52 321.95 627.52 322.88 628.59 322.95 631.52 325.81 631.52 325.81 619.66" fill="#05050a"/></g><g id="Layer_45" data-name="Layer 45"><polygon points="325.81 617.59 327.88 619.66 328.88 621.59 328.88 624.52 332.88 624.52 332.88 613.66 307.95 613.66 325.81 617.59" fill="#05050a"/><polygon points="307.95 617.74 325.81 617.74 307.95 613.66 307.95 617.74" fill="#05050a"/><polygon points="327.09 617.74 308.59 617.74 325.02 614.88 327.09 617.74" fill="#05050a"/></g><g id="Layer_46" data-name="Layer 46"><polygon points="337.95 617.74 334.95 617.74 334.95 613.66 360.95 613.66 360.95 623.45 357.02 623.45 357.02 617.74 337.95 617.74" fill="#05050a"/></g><g id="Layer_47" data-name="Layer 47"><polygon points="353.95 617.74 355.42 619.66 356.24 621.31 357.02 623.45 360.95 623.45 360.95 613.66 354.31 613.66 353.95 617.74" fill="#05050a"/></g><g id="Layer_48" data-name="Layer 48"><polygon points="345.95 617.74 345.95 638.45 334.95 638.45 334.95 634.59 337.88 634.59 337.88 617.16 345.95 617.16 345.95 617.74" fill="#05050a"/></g><g id="Layer_49" data-name="Layer 49"><polygon points="345.02 623.45 348.95 623.45 349.59 622.81 350.02 619.66 352.88 619.66 352.88 631.52 350.09 631.52 349.45 628.38 348.95 627.52 343.24 627.52 345.02 623.45" fill="#05050a"/></g><g id="Layer_50" data-name="Layer 50"><polygon points="386.81 614.59 383.24 614.59 382.74 615.59 381.88 614.59 378.67 613.66 370.09 613.66 372.88 617.52 378.88 617.52 380.88 618.56 382.31 621.31 383.02 622.38 386.81 622.38 386.81 614.59" fill="#05050a"/><path d="M395.52,662.16" transform="translate(-28.5 -42.5)" fill="#05050a"/></g><g id="Layer_51" data-name="Layer 51"><polyline points="371.88 618.56 373.09 617.02 370.38 614.06 370.09 613.66 368.02 614.74 367.02 615.74 365.95 616.74 365.02 617.59 364.02 618.56 364.02 624.38 365.09 625.59 366.09 626.45 367.02 627.38 368.74 628.24 373.95 622.38 372.24 621.81" fill="#05050a"/></g><g id="Layer_52" data-name="Layer 52"><polygon points="364.95 629.66 364.95 638.45 367.67 638.45 368.67 637.45 369.59 636.52 370.09 637.45 372.81 638.45 381.81 638.45 378.81 634.66 372.88 634.81 370.09 632.74 368.59 630.88 367.74 629.66 364.95 629.66" fill="#05050a"/></g><g id="Layer_53" data-name="Layer 53"><polygon points="378.45 635.45 379.81 633.66 379.81 631.52 379.13 630.66 376.31 630.24 374.38 629.66 371.95 629.66 368.74 628.24 372.38 622.38 373.95 622.38 378.88 623.45 382.17 624.52 384.24 625.59 385.95 626.52 387.09 628.24 387.74 629.66 387.74 632.81 387.24 634.06 385.88 636.02 384.02 637.38 381.81 638.45 377.52 636.88 378.45 635.45" fill="#05050a"/><polygon points="400.59 619.52 397.95 626.59 396.81 630.41 395.88 634.52 398.95 634.52 398.95 638.45 387.74 638.45 387.74 634.59 389.88 634.66 392.24 629.66 393.31 626.59 394.17 623.59 395.02 620.66 396.24 618.59 397.09 615.66 398.02 613.66 402.38 613.66 400.59 619.52" fill="#05050a"/></g><g id="Layer_54" data-name="Layer 54"><polygon points="401.95 638.45 401.95 634.74 404.81 634.74 403.88 630.41 396.02 630.41 396.81 626.52 402.95 626.52 399.81 616.66 401.59 613.66 406.59 613.66 413.95 634.59 414.95 638.45 401.95 638.45" fill="#05050a"/></g><g id="Layer_55" data-name="Layer 55"><polygon points="420.88 622.45 421.45 619.52 422.24 618.38 423.02 617.59 428.95 617.59 428.95 619.66 415.95 634.66 412.74 634.66 413.88 638.45 432.59 638.45 432.59 634.66 425.38 634.66 438.81 618.45 438.81 613.66 417.09 613.66 417.02 622.45 420.88 622.45" fill="#05050a"/></g><g id="Layer_56" data-name="Layer 56"><polygon points="431.24 634.66 433.38 633.52 434.52 631.74 435.09 628.66 438.81 628.66 438.81 634.66 449.88 634.66 449.88 638.45 428.24 638.45 428.81 634.66 431.24 634.66" fill="#05050a"/></g><g id="Layer_57" data-name="Layer 57"><polygon points="449.09 613.66 441.59 634.66 437.81 634.66 440.38 636.95 449.88 634.66 446.88 634.59 446.88 632.81 447.95 630.45 449.24 626.59 451.38 619.31 451.38 613.66 449.09 613.66" fill="#05050a"/></g><g id="Layer_58" data-name="Layer 58"><polygon points="457.74 613.66 449.09 613.66 453.95 626.66 448.67 626.66 446.67 630.52 454.81 630.52 456.02 634.66 453.02 634.66 453.02 638.45 465.17 638.45 464.38 634.66 457.74 613.66" fill="#05050a"/></g><g id="Layer_59" data-name="Layer 59"><polygon points="476.88 638.45 462.88 638.45 464.38 634.66 476.88 634.66 476.88 638.45" fill="#05050a"/></g><g id="Layer_60" data-name="Layer 60"><polygon points="469.88 617.52 469.88 617.88 469.88 635.09 473.95 635.09 473.95 613.66 466.95 613.66 466.95 617.59 469.88 617.52" fill="#05050a"/></g><g id="Layer_61" data-name="Layer 61"><polygon points="485.09 638.45 473.52 620.74 473.52 613.66 478.74 613.66 488.81 629.95 492.95 635.66 492.95 638.45 485.09 638.45" fill="#05050a"/></g><g id="Layer_62" data-name="Layer 62"><polygon points="495.88 613.66 495.88 617.52 492.95 617.52 492.95 638.45 487.17 631.74 488.81 629.95 489.02 617.52 485.95 617.45 485.95 613.66 495.88 613.66" fill="#05050a"/><path d="M532.31,674.24" transform="translate(-28.5 -42.5)" fill="#05050a"/></g><g id="Layer_63" data-name="Layer 63"><polygon points="533.88 623.52 530.17 623.52 529.38 621.52 528.24 619.45 527.02 618.38 525.45 617.59 522.52 617.59 521.74 618.16 520.88 619.09 519.95 620.56 518.95 622.38 509.02 623.02 510.09 620.56 511.67 618.66 512.95 617.59 514.81 615.74 516.31 614.74 518.09 614.02 526.81 613.66 528.67 614.59 529.88 615.59 529.95 613.66 533.88 613.66 533.88 623.52" fill="#05050a"/></g><g id="Layer_65" data-name="Layer 65"><polygon points="519.02 630.59 520.59 632.88 521.45 633.74 523.38 634.66 526.31 634.66 527.24 633.81 528.09 632.63 528.95 630.95 529.95 628.74 533.88 628.74 533.88 631.7 532.88 633.52 531.67 635.38 530.31 636.66 528.88 637.45 526.81 638.45 517.95 638.45 515.17 637.45 513.24 636.24 511.45 634.59 510.02 632.52 509.02 630.45 509.02 622.66 510.77 619.74 518.95 622.38 519.02 630.59" fill="#05050a"/></g><g id="Layer_66" data-name="Layer 66"><polygon points="550.31 613.66 550.31 617.45 548.43 617.83 547.63 618.36 546.88 619.97 546.29 621.68 545.76 623.52 535.95 622.59 536.86 620.88 538.52 618.59 540.13 617.08 541.47 615.84 543.13 614.99 545.65 614.13 547.79 613.66 550.31 613.66" fill="#05050a"/></g><g id="Layer_67" data-name="Layer 67"><polygon points="555.13 623.99 554.65 621.79 553.84 619.74 552.67 617.83 551.49 617.45 549.61 617.45 548.49 616.86 548.7 613.66 551.59 613.66 554.76 613.66 555.93 614.08 557.7 615.09 559.47 616.22 560.86 617.66 562.42 619.74 563.43 621.84 564.24 623.52 555.13 623.99" fill="#05050a"/></g><g id="Layer_68" data-name="Layer 68"><polygon points="554.86 631.59 554.86 622.77 563.65 622.77 564.24 623.99 564.24 629.1 563.97 630.84 563.06 632.61 561.88 634.06 560.01 635.5 557.97 636.9 554.86 638.24 552.99 634.54 554.11 633.36 554.86 631.59" fill="#05050a"/></g><g id="Layer_69" data-name="Layer 69"><polygon points="545.98 622.77 545.98 624.52 545.98 630.5 546.34 631.65 546.99 632.56 547.79 633.63 549.24 634.7 550.74 634.7 551.01 638.45 545.98 638.45 543.93 637.65 542.17 636.9 540.72 635.99 539.27 634.59 538.26 633.41 537.18 631.81 536.27 629.34 535.95 622.59 541.42 620.02 545.98 622.77" fill="#05050a"/></g><g id="Layer_71" data-name="Layer 71"><path d="M295.67,593.2" transform="translate(-28.5 -42.5)"/><rect x="255.93" y="550.7" width="11.23" height="38.79" fill="#2e2c73"/></g><g id="Layer_72" data-name="Layer 72"><polygon points="318.74 613.66 318.74 633.95 321.56 633.95 321.56 638.45 307.95 638.45 307.95 634.24 311.17 634.09 311.02 617.74 311.17 614.24 318.74 613.66" fill="#05050a"/></g><g id="Layer_73" data-name="Layer 73"><path d="M373.09,676.56" transform="translate(-28.5 -42.5)" fill="#05050a"/><polygon points="345.95 634.66 353.95 634.66 355.82 632.81 357.45 629.66 357.45 627.81 360.95 627.81 360.95 638.45 334.95 638.45 334.95 634.59 345.95 634.66" fill="#05050a"/></g><g id="Layer_74" data-name="Layer 74"><polygon points="554.11 633.36 552.99 634.54 549.24 634.7 547.79 633.63 543.93 637.65 545.98 638.45 551.01 638.45 554.86 638.24 556.98 637.32 560.01 635.5 554.86 631.59 554.11 633.36" fill="#05050a"/></g><g id="Layer_75" data-name="Layer 75"><polygon points="593.59 619.74 587.67 635.02 587.67 638.24 581.17 638.24 575.59 619.74 582.45 619.74 584.59 627.52 590.45 613.66 603.74 613.66 603.74 617.52 600.88 617.52 600.88 634.24 603.74 634.52 603.74 638.45 591.02 638.45 591.17 635.02 593.88 635.02 593.59 619.74" fill="#05050a"/></g><g id="Layer_77" data-name="Layer 77"><polygon points="583.02 621.24 580.3 613.66 566.88 613.66 566.88 617.45 569.91 617.45 574.95 618.83 578.27 628.24 583.02 621.24" fill="#05050a"/></g><g id="Layer_78" data-name="Layer 78"><polygon points="574.87 618.83 574.87 634.38 577.59 634.38 577.59 638.45 566.88 638.45 566.88 635.02 569.74 635.02 569.88 617.45 574.87 618.83" fill="#05050a"/><path d="M743.38,350" transform="translate(-28.5 -42.5)" fill="#05050a"/></g></svg>